<svg width="221" height="61" viewBox="0 0 221 61" fill="none" xmlns="http://www.w3.org/2000/svg">
<path d="M11.5 21.9013V39.8924M11.5 39.8924H8V46.5067H11.75M11.5 39.8924H15.5V46.5067H11.75M11.75 46.5067V54.1794M23 9.20179V19.2556M23 19.2556H19.25L20 38.8341H23.125M23 19.2556H26.25V38.8341H23.125M23.125 38.8341V45.1839M34.25 9.20179V14.4933M34.25 14.4933H30.5V23.2242H34.25M34.25 14.4933H38.25V23.2242H34.25M34.25 23.2242V36.4529M45.25 16.6099V23.2242M45.25 23.2242H41.25V34.8655H45.25M45.25 23.2242H49V34.8655H45.25M45.25 34.8655V45.1839M1 60V1H56V60H1Z" stroke="white" stroke-width="2"/>
<path d="M75.1406 17.9766H70.2891V33H68.3203V17.9766H63.4805V16.1953H75.1406V17.9766ZM83.4375 33.2812C81.0547 33.2812 79.1445 32.4961 77.707 30.9258C76.2773 29.3555 75.5625 27.3125 75.5625 24.7969C75.5625 22.0938 76.293 19.9375 77.7539 18.3281C79.2148 16.7188 81.2031 15.9141 83.7188 15.9141C86.0391 15.9141 87.9062 16.6953 89.3203 18.2578C90.7422 19.8203 91.4531 21.8633 91.4531 24.3867C91.4531 27.1289 90.7266 29.2969 89.2734 30.8906C87.8203 32.4844 85.875 33.2812 83.4375 33.2812ZM83.5781 17.6953C81.8125 17.6953 80.3789 18.332 79.2773 19.6055C78.1758 20.8789 77.625 22.5508 77.625 24.6211C77.625 26.6914 78.1602 28.3594 79.2305 29.625C80.3086 30.8828 81.7109 31.5117 83.4375 31.5117C85.2812 31.5117 86.7344 30.9102 87.7969 29.707C88.8594 28.5039 89.3906 26.8203 89.3906 24.6562C89.3906 22.4375 88.875 20.7227 87.8438 19.5117C86.8125 18.3008 85.3906 17.6953 83.5781 17.6953ZM96.7266 26.6484V33H94.7578V16.1953H99.375C101.172 16.1953 102.562 16.6328 103.547 17.5078C104.539 18.3828 105.035 19.6172 105.035 21.2109C105.035 22.8047 104.484 24.1094 103.383 25.125C102.289 26.1406 100.809 26.6484 98.9414 26.6484H96.7266ZM96.7266 17.9766V24.8672H98.7891C100.148 24.8672 101.184 24.5586 101.895 23.9414C102.613 23.3164 102.973 22.4375 102.973 21.3047C102.973 19.0859 101.66 17.9766 99.0352 17.9766H96.7266ZM114.012 32.3203V30C114.277 30.2344 114.594 30.4453 114.961 30.6328C115.336 30.8203 115.727 30.9805 116.133 31.1133C116.547 31.2383 116.961 31.3359 117.375 31.4062C117.789 31.4766 118.172 31.5117 118.523 31.5117C119.734 31.5117 120.637 31.2891 121.23 30.8438C121.832 30.3906 122.133 29.7422 122.133 28.8984C122.133 28.4453 122.031 28.0508 121.828 27.7148C121.633 27.3789 121.359 27.0742 121.008 26.8008C120.656 26.5195 120.238 26.2539 119.754 26.0039C119.277 25.7461 118.762 25.4766 118.207 25.1953C117.621 24.8984 117.074 24.5977 116.566 24.293C116.059 23.9883 115.617 23.6523 115.242 23.2852C114.867 22.918 114.57 22.5039 114.352 22.043C114.141 21.5742 114.035 21.0273 114.035 20.4023C114.035 19.6367 114.203 18.9727 114.539 18.4102C114.875 17.8398 115.316 17.3711 115.863 17.0039C116.41 16.6367 117.031 16.3633 117.727 16.1836C118.43 16.0039 119.145 15.9141 119.871 15.9141C121.527 15.9141 122.734 16.1133 123.492 16.5117V18.7266C122.5 18.0391 121.227 17.6953 119.672 17.6953C119.242 17.6953 118.812 17.7422 118.383 17.8359C117.953 17.9219 117.57 18.0664 117.234 18.2695C116.898 18.4727 116.625 18.7344 116.414 19.0547C116.203 19.375 116.098 19.7656 116.098 20.2266C116.098 20.6562 116.176 21.0273 116.332 21.3398C116.496 21.6523 116.734 21.9375 117.047 22.1953C117.359 22.4531 117.738 22.7031 118.184 22.9453C118.637 23.1875 119.156 23.4531 119.742 23.7422C120.344 24.0391 120.914 24.3516 121.453 24.6797C121.992 25.0078 122.465 25.3711 122.871 25.7695C123.277 26.168 123.598 26.6094 123.832 27.0938C124.074 27.5781 124.195 28.1328 124.195 28.7578C124.195 29.5859 124.031 30.2891 123.703 30.8672C123.383 31.4375 122.945 31.9023 122.391 32.2617C121.844 32.6211 121.211 32.8789 120.492 33.0352C119.773 33.1992 119.016 33.2812 118.219 33.2812C117.953 33.2812 117.625 33.2578 117.234 33.2109C116.844 33.1719 116.445 33.1094 116.039 33.0234C115.633 32.9453 115.246 32.8477 114.879 32.7305C114.52 32.6055 114.23 32.4688 114.012 32.3203ZM137.484 17.9766H132.633V33H130.664V17.9766H125.824V16.1953H137.484V17.9766ZM145.781 33.2812C143.398 33.2812 141.488 32.4961 140.051 30.9258C138.621 29.3555 137.906 27.3125 137.906 24.7969C137.906 22.0938 138.637 19.9375 140.098 18.3281C141.559 16.7188 143.547 15.9141 146.062 15.9141C148.383 15.9141 150.25 16.6953 151.664 18.2578C153.086 19.8203 153.797 21.8633 153.797 24.3867C153.797 27.1289 153.07 29.2969 151.617 30.8906C150.164 32.4844 148.219 33.2812 145.781 33.2812ZM145.922 17.6953C144.156 17.6953 142.723 18.332 141.621 19.6055C140.52 20.8789 139.969 22.5508 139.969 24.6211C139.969 26.6914 140.504 28.3594 141.574 29.625C142.652 30.8828 144.055 31.5117 145.781 31.5117C147.625 31.5117 149.078 30.9102 150.141 29.707C151.203 28.5039 151.734 26.8203 151.734 24.6562C151.734 22.4375 151.219 20.7227 150.188 19.5117C149.156 18.3008 147.734 17.6953 145.922 17.6953ZM168.539 32.2969C167.297 32.9531 165.75 33.2812 163.898 33.2812C161.508 33.2812 159.594 32.5117 158.156 30.9727C156.719 29.4336 156 27.4141 156 24.9141C156 22.2266 156.809 20.0547 158.426 18.3984C160.043 16.7422 162.094 15.9141 164.578 15.9141C166.172 15.9141 167.492 16.1445 168.539 16.6055V18.7031C167.336 18.0312 166.008 17.6953 164.555 17.6953C162.625 17.6953 161.059 18.3398 159.855 19.6289C158.66 20.918 158.062 22.6406 158.062 24.7969C158.062 26.8438 158.621 28.4766 159.738 29.6953C160.863 30.9062 162.336 31.5117 164.156 31.5117C165.844 31.5117 167.305 31.1367 168.539 30.3867V32.2969ZM183.656 33H180.914L174.422 25.3125C174.18 25.0234 174.031 24.8281 173.977 24.7266H173.93V33H171.961V16.1953H173.93V24.0938H173.977C174.086 23.9219 174.234 23.7305 174.422 23.5195L180.703 16.1953H183.152L175.945 24.2578L183.656 33ZM185.098 32.3203V30C185.363 30.2344 185.68 30.4453 186.047 30.6328C186.422 30.8203 186.812 30.9805 187.219 31.1133C187.633 31.2383 188.047 31.3359 188.461 31.4062C188.875 31.4766 189.258 31.5117 189.609 31.5117C190.82 31.5117 191.723 31.2891 192.316 30.8438C192.918 30.3906 193.219 29.7422 193.219 28.8984C193.219 28.4453 193.117 28.0508 192.914 27.7148C192.719 27.3789 192.445 27.0742 192.094 26.8008C191.742 26.5195 191.324 26.2539 190.84 26.0039C190.363 25.7461 189.848 25.4766 189.293 25.1953C188.707 24.8984 188.16 24.5977 187.652 24.293C187.145 23.9883 186.703 23.6523 186.328 23.2852C185.953 22.918 185.656 22.5039 185.438 22.043C185.227 21.5742 185.121 21.0273 185.121 20.4023C185.121 19.6367 185.289 18.9727 185.625 18.4102C185.961 17.8398 186.402 17.3711 186.949 17.0039C187.496 16.6367 188.117 16.3633 188.812 16.1836C189.516 16.0039 190.23 15.9141 190.957 15.9141C192.613 15.9141 193.82 16.1133 194.578 16.5117V18.7266C193.586 18.0391 192.312 17.6953 190.758 17.6953C190.328 17.6953 189.898 17.7422 189.469 17.8359C189.039 17.9219 188.656 18.0664 188.32 18.2695C187.984 18.4727 187.711 18.7344 187.5 19.0547C187.289 19.375 187.184 19.7656 187.184 20.2266C187.184 20.6562 187.262 21.0273 187.418 21.3398C187.582 21.6523 187.82 21.9375 188.133 22.1953C188.445 22.4531 188.824 22.7031 189.27 22.9453C189.723 23.1875 190.242 23.4531 190.828 23.7422C191.43 24.0391 192 24.3516 192.539 24.6797C193.078 25.0078 193.551 25.3711 193.957 25.7695C194.363 26.168 194.684 26.6094 194.918 27.0938C195.16 27.5781 195.281 28.1328 195.281 28.7578C195.281 29.5859 195.117 30.2891 194.789 30.8672C194.469 31.4375 194.031 31.9023 193.477 32.2617C192.93 32.6211 192.297 32.8789 191.578 33.0352C190.859 33.1992 190.102 33.2812 189.305 33.2812C189.039 33.2812 188.711 33.2578 188.32 33.2109C187.93 33.1719 187.531 33.1094 187.125 33.0234C186.719 32.9453 186.332 32.8477 185.965 32.7305C185.605 32.6055 185.316 32.4688 185.098 32.3203Z" fill="white"/>
<path d="M68.1611 48V46.7559H68.1338C67.9059 47.2025 67.5938 47.5488 67.1973 47.7949C66.8053 48.041 66.361 48.1641 65.8643 48.1641C65.527 48.1641 65.2217 48.1162 64.9482 48.0205C64.6794 47.9248 64.4492 47.7904 64.2578 47.6172C64.071 47.4395 63.9251 47.2275 63.8203 46.9814C63.7201 46.7354 63.6699 46.4642 63.6699 46.168C63.6699 45.5345 63.8659 45.0309 64.2578 44.6572C64.6497 44.279 65.2422 44.0329 66.0352 43.9189L68.1611 43.6113C68.1611 42.2669 67.6393 41.5947 66.5957 41.5947C65.7799 41.5947 65.0234 41.8932 64.3262 42.4902V41.5332C64.472 41.4284 64.6361 41.335 64.8184 41.2529C65.0052 41.1663 65.2012 41.0934 65.4062 41.0342C65.6113 40.9704 65.821 40.9225 66.0352 40.8906C66.2539 40.8542 66.4658 40.8359 66.6709 40.8359C67.4502 40.8359 68.0381 41.0547 68.4346 41.4922C68.8356 41.9297 69.0361 42.5814 69.0361 43.4473V48H68.1611ZM66.3564 44.6025C66.042 44.6481 65.7731 44.7051 65.5498 44.7734C65.3265 44.8418 65.1419 44.9352 64.9961 45.0537C64.8503 45.1676 64.7432 45.3112 64.6748 45.4844C64.6064 45.653 64.5723 45.8626 64.5723 46.1133C64.5723 46.3001 64.6042 46.4733 64.668 46.6328C64.7363 46.7923 64.832 46.9313 64.9551 47.0498C65.0827 47.1637 65.2354 47.2526 65.4131 47.3164C65.5954 47.3802 65.8005 47.4121 66.0283 47.4121C66.3382 47.4121 66.623 47.3529 66.8828 47.2344C67.1426 47.1159 67.3659 46.9518 67.5527 46.7422C67.7441 46.5326 67.8923 46.2819 67.9971 45.9902C68.1064 45.6986 68.1611 45.3818 68.1611 45.04V44.3496L66.3564 44.6025ZM75.8652 48V44.7393H72.0166V48H71.1416V41H72.0166V43.9805H75.8652V41H76.7402V48H75.8652ZM83.0361 48V46.7559H83.0088C82.7809 47.2025 82.4688 47.5488 82.0723 47.7949C81.6803 48.041 81.236 48.1641 80.7393 48.1641C80.402 48.1641 80.0967 48.1162 79.8232 48.0205C79.5544 47.9248 79.3242 47.7904 79.1328 47.6172C78.946 47.4395 78.8001 47.2275 78.6953 46.9814C78.5951 46.7354 78.5449 46.4642 78.5449 46.168C78.5449 45.5345 78.7409 45.0309 79.1328 44.6572C79.5247 44.279 80.1172 44.0329 80.9102 43.9189L83.0361 43.6113C83.0361 42.2669 82.5143 41.5947 81.4707 41.5947C80.6549 41.5947 79.8984 41.8932 79.2012 42.4902V41.5332C79.347 41.4284 79.5111 41.335 79.6934 41.2529C79.8802 41.1663 80.0762 41.0934 80.2812 41.0342C80.4863 40.9704 80.696 40.9225 80.9102 40.8906C81.1289 40.8542 81.3408 40.8359 81.5459 40.8359C82.3252 40.8359 82.9131 41.0547 83.3096 41.4922C83.7106 41.9297 83.9111 42.5814 83.9111 43.4473V48H83.0361ZM81.2314 44.6025C80.917 44.6481 80.6481 44.7051 80.4248 44.7734C80.2015 44.8418 80.0169 44.9352 79.8711 45.0537C79.7253 45.1676 79.6182 45.3112 79.5498 45.4844C79.4814 45.653 79.4473 45.8626 79.4473 46.1133C79.4473 46.3001 79.4792 46.4733 79.543 46.6328C79.6113 46.7923 79.707 46.9313 79.8301 47.0498C79.9577 47.1637 80.1104 47.2526 80.2881 47.3164C80.4704 47.3802 80.6755 47.4121 80.9033 47.4121C81.2132 47.4121 81.498 47.3529 81.7578 47.2344C82.0176 47.1159 82.2409 46.9518 82.4277 46.7422C82.6191 46.5326 82.7673 46.2819 82.8721 45.9902C82.9814 45.6986 83.0361 45.3818 83.0361 45.04V44.3496L81.2314 44.6025ZM90.084 48V41.7656H88.2451C88.1631 42.8503 88.0514 43.7913 87.9102 44.5889C87.7689 45.3818 87.5889 46.0381 87.3701 46.5576C87.1559 47.0771 86.8984 47.4645 86.5977 47.7197C86.3014 47.9704 85.9505 48.0957 85.5449 48.0957C85.4538 48.0957 85.3649 48.0889 85.2783 48.0752C85.1917 48.0615 85.1143 48.0433 85.0459 48.0205V47.2617C85.1051 47.2891 85.1758 47.3118 85.2578 47.3301C85.3444 47.3438 85.4242 47.3506 85.4971 47.3506C85.7751 47.3506 86.0212 47.2161 86.2354 46.9473C86.4541 46.6738 86.6432 46.2705 86.8027 45.7373C86.9668 45.2041 87.1058 44.541 87.2197 43.748C87.3337 42.9551 87.4271 42.0391 87.5 41H90.9521V48H90.084ZM98.0547 48V42.2852C98.0228 42.3353 97.9909 42.3877 97.959 42.4424C97.9271 42.4971 97.8952 42.5472 97.8633 42.5928L94.0078 48H93.208V41H94.0352V46.6602C94.0579 46.5964 94.0898 46.5257 94.1309 46.4482C94.1764 46.3662 94.2311 46.2796 94.2949 46.1885L98.041 41H98.875V48H98.0547ZM105.718 46.0654C105.718 46.3617 105.659 46.6374 105.54 46.8926C105.426 47.1478 105.248 47.3711 105.007 47.5625C104.765 47.7493 104.46 47.8975 104.091 48.0068C103.722 48.1162 103.284 48.1709 102.778 48.1709C102.564 48.1709 102.352 48.1595 102.143 48.1367C101.933 48.1185 101.732 48.0911 101.541 48.0547C101.354 48.0182 101.176 47.9749 101.008 47.9248C100.844 47.8747 100.7 47.8177 100.577 47.7539V46.8789C100.892 47.0521 101.236 47.1842 101.609 47.2754C101.988 47.362 102.368 47.4053 102.751 47.4053C103.134 47.4053 103.457 47.3734 103.722 47.3096C103.991 47.2412 104.207 47.1501 104.371 47.0361C104.535 46.9176 104.654 46.7786 104.727 46.6191C104.799 46.4551 104.836 46.2773 104.836 46.0859C104.836 45.612 104.647 45.2747 104.269 45.0742C103.895 44.8737 103.362 44.7734 102.669 44.7734H101.849V44.0146H102.607C103.25 44.0146 103.729 43.9144 104.043 43.7139C104.357 43.5088 104.515 43.1921 104.515 42.7637C104.515 42.4173 104.373 42.137 104.091 41.9229C103.808 41.7041 103.387 41.5947 102.826 41.5947C102.466 41.5947 102.106 41.6426 101.746 41.7383C101.386 41.8294 101.042 41.9548 100.714 42.1143V41.2803C101.042 41.1527 101.393 41.0456 101.767 40.959C102.14 40.8724 102.523 40.8291 102.915 40.8291C103.348 40.8291 103.719 40.8747 104.029 40.9658C104.344 41.057 104.601 41.1846 104.802 41.3486C105.007 41.5081 105.157 41.7018 105.253 41.9297C105.353 42.153 105.403 42.3991 105.403 42.668C105.403 43.0964 105.276 43.4587 105.021 43.7549C104.77 44.0465 104.414 44.238 103.954 44.3291V44.3633C104.228 44.3815 104.474 44.4362 104.692 44.5273C104.911 44.6185 105.096 44.7393 105.246 44.8896C105.401 45.04 105.517 45.2155 105.595 45.416C105.677 45.6165 105.718 45.833 105.718 46.0654ZM112.171 46.8721V51.2197H111.296V41H112.171V42.3398H112.198C112.458 41.8522 112.804 41.4808 113.237 41.2256C113.675 40.9658 114.167 40.8359 114.714 40.8359C115.16 40.8359 115.559 40.918 115.91 41.082C116.266 41.2415 116.564 41.4694 116.806 41.7656C117.052 42.0618 117.239 42.4219 117.366 42.8457C117.498 43.2695 117.564 43.7458 117.564 44.2744C117.564 44.8532 117.492 45.3818 117.346 45.8604C117.2 46.3343 116.99 46.7422 116.717 47.084C116.443 47.4258 116.111 47.6924 115.719 47.8838C115.331 48.0706 114.894 48.1641 114.406 48.1641C113.422 48.1641 112.686 47.7334 112.198 46.8721H112.171ZM112.171 45.0879C112.171 45.4069 112.223 45.7077 112.328 45.9902C112.438 46.2682 112.588 46.5143 112.779 46.7285C112.971 46.9382 113.201 47.1045 113.47 47.2275C113.743 47.3506 114.044 47.4121 114.372 47.4121C114.723 47.4121 115.04 47.3392 115.322 47.1934C115.605 47.043 115.844 46.8311 116.04 46.5576C116.241 46.2842 116.393 45.9538 116.498 45.5664C116.607 45.179 116.662 44.7461 116.662 44.2676C116.662 43.8574 116.612 43.4883 116.512 43.1602C116.411 42.8275 116.268 42.5449 116.081 42.3125C115.899 42.0801 115.675 41.9023 115.411 41.7793C115.151 41.6562 114.86 41.5947 114.536 41.5947C114.172 41.5947 113.843 41.6631 113.552 41.7998C113.26 41.932 113.012 42.1143 112.807 42.3467C112.602 42.5791 112.444 42.8525 112.335 43.167C112.226 43.4769 112.171 43.8073 112.171 44.1582V45.0879ZM125.774 48V41H126.643V48H125.774ZM124.407 45.8604C124.407 46.2067 124.348 46.5143 124.229 46.7832C124.111 47.0475 123.951 47.2708 123.751 47.4531C123.55 47.6309 123.318 47.7676 123.054 47.8633C122.794 47.9544 122.518 48 122.227 48H119.335V41H120.21V43.7822H122.151C122.498 43.7822 122.81 43.8301 123.088 43.9258C123.366 44.0169 123.603 44.1514 123.799 44.3291C123.995 44.5068 124.145 44.7256 124.25 44.9854C124.355 45.2406 124.407 45.5322 124.407 45.8604ZM123.505 45.8604C123.505 45.4593 123.377 45.1403 123.122 44.9033C122.871 44.6663 122.491 44.5479 121.98 44.5479H120.21V47.2344H121.994C122.258 47.2344 122.484 47.2025 122.671 47.1387C122.862 47.0703 123.02 46.9769 123.143 46.8584C123.266 46.7399 123.357 46.5964 123.416 46.4277C123.475 46.2546 123.505 46.0654 123.505 45.8604ZM133.629 48V44.7393H129.78V48H128.905V41H129.78V43.9805H133.629V41H134.504V48H133.629ZM140.854 48L137.669 44.6025H137.642V48H136.767V41H137.642V44.2744H137.669L140.759 41H141.9L138.585 44.3975L142.085 48H140.854ZM147.321 48V46.7559H147.294C147.066 47.2025 146.754 47.5488 146.357 47.7949C145.965 48.041 145.521 48.1641 145.024 48.1641C144.687 48.1641 144.382 48.1162 144.108 48.0205C143.84 47.9248 143.609 47.7904 143.418 47.6172C143.231 47.4395 143.085 47.2275 142.98 46.9814C142.88 46.7354 142.83 46.4642 142.83 46.168C142.83 45.5345 143.026 45.0309 143.418 44.6572C143.81 44.279 144.402 44.0329 145.195 43.9189L147.321 43.6113C147.321 42.2669 146.799 41.5947 145.756 41.5947C144.94 41.5947 144.184 41.8932 143.486 42.4902V41.5332C143.632 41.4284 143.796 41.335 143.979 41.2529C144.165 41.1663 144.361 41.0934 144.566 41.0342C144.771 40.9704 144.981 40.9225 145.195 40.8906C145.414 40.8542 145.626 40.8359 145.831 40.8359C146.61 40.8359 147.198 41.0547 147.595 41.4922C147.996 41.9297 148.196 42.5814 148.196 43.4473V48H147.321ZM145.517 44.6025C145.202 44.6481 144.933 44.7051 144.71 44.7734C144.487 44.8418 144.302 44.9352 144.156 45.0537C144.01 45.1676 143.903 45.3112 143.835 45.4844C143.767 45.653 143.732 45.8626 143.732 46.1133C143.732 46.3001 143.764 46.4733 143.828 46.6328C143.896 46.7923 143.992 46.9313 144.115 47.0498C144.243 47.1637 144.396 47.2526 144.573 47.3164C144.756 47.3802 144.961 47.4121 145.188 47.4121C145.498 47.4121 145.783 47.3529 146.043 47.2344C146.303 47.1159 146.526 46.9518 146.713 46.7422C146.904 46.5326 147.052 46.2819 147.157 45.9902C147.267 45.6986 147.321 45.3818 147.321 45.04V44.3496L145.517 44.6025Z" fill="white"/>
<path d="M155 44H201" stroke="white" stroke-width="2"/>
</svg>
