<svg width="52" height="53" viewBox="0 0 52 53" fill="none" xmlns="http://www.w3.org/2000/svg">
<g clip-path="url(#clip0)">
<path d="M19.084 10.6971C18.4422 10.0585 17.4038 10.0585 16.7618 10.6971C16.1199 11.3357 16.12 12.3709 16.7618 13.0095L30.2639 26.4629L16.7618 39.9163C16.12 40.555 16.12 41.59 16.7618 42.2287C17.4037 42.8674 18.4421 42.8674 19.084 42.2287L33.6635 27.7011C34.0063 27.3599 34.1509 26.9098 34.1282 26.463C34.151 26.0177 34.0048 25.5659 33.6635 25.2247L19.084 10.6971ZM45.5 0.43689H6.5C2.91039 0.43689 0 3.34728 0 6.93689V45.9369C0 49.5265 2.91039 52.4369 6.5 52.4369H45.5C49.0896 52.4369 52 49.5265 52 45.9369V6.93689C52 3.34728 49.0896 0.43689 45.5 0.43689ZM48.75 45.9369C48.75 47.7309 47.2956 49.1869 45.5 49.1869H6.5C4.70439 49.1869 3.25 47.7309 3.25 45.9369V6.93689C3.25 5.14289 4.70439 3.68689 6.5 3.68689H45.5C47.2956 3.68689 48.75 5.14289 48.75 6.93689V45.9369Z" fill="white"/>
</g>
<defs>
<clipPath id="clip0">
<rect width="52" height="52" fill="white" transform="translate(0 0.43689)"/>
</clipPath>
</defs>
</svg>
