<svg width="176" height="176" viewBox="0 0 176 176" fill="none" xmlns="http://www.w3.org/2000/svg">
<path d="M176 129.594C176 130.934 165.791 161.15 165.378 162.181C164.759 164.243 162.8 165.688 160.531 165.688C158.263 165.688 156.303 164.244 155.685 162.181C155.272 161.047 145.062 130.934 145.062 129.594L160.531 119.281L176 129.594Z" fill="#B5DBFF"/>
<path d="M176 129.594C176 130.934 165.791 161.15 165.378 162.181C164.759 164.243 162.8 165.688 160.531 165.688V119.281L176 129.594Z" fill="#8DC8FF"/>
<path d="M134.75 25.7812V160.531C134.75 169.09 127.841 176 119.281 176H15.4688C6.90903 176 0 169.09 0 160.531V25.7812C0 17.2215 6.90903 10.3125 15.4688 10.3125H119.281C127.841 10.3125 134.75 17.2215 134.75 25.7812Z" fill="#004A7B"/>
<path d="M134.75 25.7812V160.531C134.75 169.09 127.841 176 119.281 176H67.375V10.3125H119.281C127.841 10.3125 134.75 17.2215 134.75 25.7812Z" fill="#00345B"/>
<path d="M124.438 25.7812V160.531C124.438 163.418 122.169 165.688 119.281 165.688H15.4688C12.5809 165.688 10.3125 163.418 10.3125 160.531V25.7812C10.3125 22.8934 12.5809 20.625 15.4688 20.625H119.281C122.169 20.625 124.438 22.8934 124.438 25.7812Z" fill="#E1E4FB"/>
<path d="M124.438 25.7812V160.531C124.438 163.418 122.169 165.688 119.281 165.688H67.375V20.625H119.281C122.169 20.625 124.438 22.8934 124.438 25.7812Z" fill="#C5C9F7"/>
<path d="M88 0H46.75C38.1903 0 31.2812 6.90903 31.2812 15.4688C31.2812 24.0278 38.1903 30.9375 46.75 30.9375H88C96.5597 30.9375 103.469 24.0278 103.469 15.4688C103.469 6.90903 96.5597 0 88 0Z" fill="#17ACE8"/>
<path d="M32.792 112.614C33.7992 113.622 35.1185 114.125 36.4375 114.125C37.7564 114.125 39.0761 113.622 40.0829 112.614L60.7079 91.9893C62.722 89.9753 62.722 86.7121 60.7079 84.698C58.6939 82.684 55.4307 82.684 53.4167 84.698L36.4375 101.678L29.7704 95.0105C27.7564 92.9965 24.4932 92.9965 22.4792 95.0105C20.4651 97.0246 20.4651 100.288 22.4792 102.302L32.792 112.614Z" fill="#2185BD"/>
<path d="M53.417 125.948L36.4375 142.928L29.7704 136.26C27.7564 134.246 24.4932 134.246 22.4792 136.26C20.4651 138.275 20.4651 141.538 22.4792 143.552L32.7917 153.864C33.7988 154.871 35.1182 155.375 36.4371 155.375C37.7561 155.375 39.0757 154.871 40.0826 153.864L60.7076 133.239C62.7216 131.225 62.7216 127.962 60.7076 125.948C58.6936 123.934 55.431 123.934 53.417 125.948Z" fill="#2185BD"/>
<path d="M22.4795 71.0206C24.4935 73.0346 27.7564 73.0349 29.7708 71.0206L36.4375 64.3539L43.1045 71.0209C45.1185 73.0349 48.3814 73.0353 50.3958 71.0209C52.4098 69.0069 52.4098 65.7437 50.3958 63.7296L43.7287 57.0626L50.3958 50.3956C52.4098 48.3815 52.4098 45.1183 50.3958 43.1043C48.3817 41.0902 45.1185 41.0902 43.1045 43.1043L36.4375 49.7713L29.7704 43.1043C27.7564 41.0902 24.4932 41.0902 22.4792 43.1043C20.4651 45.1183 20.4651 48.3815 22.4792 50.3956L29.1462 57.0626L22.4792 63.7296C20.4651 65.7437 20.4651 69.0065 22.4795 71.0206Z" fill="#3CA0FD"/>
<path d="M108.969 51.9062H88C85.15 51.9062 82.8438 49.6 82.8438 46.75C82.8438 43.9 85.15 41.5938 88 41.5938H108.969C111.819 41.5938 114.125 43.9 114.125 46.75C114.125 49.6 111.819 51.9062 108.969 51.9062Z" fill="#8A93E6"/>
<path d="M108.969 72.5312H77.6875C74.8375 72.5312 72.5312 70.225 72.5312 67.375C72.5312 64.525 74.8375 62.2188 77.6875 62.2188H108.969C111.819 62.2188 114.125 64.525 114.125 67.375C114.125 70.225 111.819 72.5312 108.969 72.5312Z" fill="#8A93E6"/>
<path d="M108.969 93.5H88C85.15 93.5 82.8438 91.1938 82.8438 88.3438C82.8438 85.4937 85.15 83.1875 88 83.1875H108.969C111.819 83.1875 114.125 85.4937 114.125 88.3438C114.125 91.1938 111.819 93.5 108.969 93.5Z" fill="#8A93E6"/>
<path d="M108.969 114.125H77.6875C74.8375 114.125 72.5312 111.819 72.5312 108.969C72.5312 106.119 74.8375 103.812 77.6875 103.812H108.969C111.819 103.812 114.125 106.119 114.125 108.969C114.125 111.819 111.819 114.125 108.969 114.125Z" fill="#8A93E6"/>
<path d="M108.969 134.75H88C85.15 134.75 82.8438 132.444 82.8438 129.594C82.8438 126.744 85.15 124.438 88 124.438H108.969C111.819 124.438 114.125 126.744 114.125 129.594C114.125 132.444 111.819 134.75 108.969 134.75Z" fill="#8A93E6"/>
<path d="M108.969 155.375H77.6875C74.8375 155.375 72.5312 153.069 72.5312 150.219C72.5312 147.369 74.8375 145.062 77.6875 145.062H108.969C111.819 145.062 114.125 147.369 114.125 150.219C114.125 153.069 111.819 155.375 108.969 155.375Z" fill="#8A93E6"/>
<path d="M103.469 15.4688C103.469 24.0278 96.5597 30.9375 88 30.9375H67.375V0H88C96.5597 0 103.469 6.90903 103.469 15.4688Z" fill="#1689FC"/>
<path d="M176 26.125V41.5938L165.688 51.9062H155.375L145.062 41.5938V26.125C145.062 17.5653 151.972 10.6562 160.531 10.6562C169.091 10.6562 176 17.5653 176 26.125Z" fill="#004A7B"/>
<path d="M176 26.125V41.5938L165.688 51.9062H160.531V10.6562C169.091 10.6562 176 17.5653 176 26.125Z" fill="#00345B"/>
<path d="M176 41.5938C176 41.5938 176 127.531 176 129.491V129.594H145.062C145.062 129.594 145.062 129.594 145.062 129.491V41.5938H176Z" fill="#4B81B3"/>
<path d="M176 41.5938C176 41.5938 176 127.531 176 129.491V129.594H160.531V41.5938H176Z" fill="#2D588B"/>
</svg>
