<svg width="170" height="170" viewBox="0 0 170 170" fill="none" xmlns="http://www.w3.org/2000/svg">
<g clip-path="url(#clip0)">
<path d="M35.1951 120.195H15.2733C12.5228 120.195 10.2929 122.425 10.2929 125.175V161.699C10.2929 164.449 12.5228 166.679 15.2733 166.679H35.1951C37.9456 166.679 40.1755 164.449 40.1755 161.699V125.175C40.1755 122.425 37.9456 120.195 35.1951 120.195Z" fill="#4BC0FF"/>
<path d="M75.0384 108.242H55.1167C52.3662 108.242 50.1363 110.472 50.1363 113.222V161.699C50.1363 164.449 52.3662 166.679 55.1167 166.679H75.0384C77.789 166.679 80.0189 164.449 80.0189 161.699V113.222C80.0189 110.472 77.789 108.242 75.0384 108.242Z" fill="#4BC0FF"/>
<path d="M114.882 89.9805H94.9602C92.2097 89.9805 89.9798 92.2104 89.9798 94.9609V161.699C89.9798 164.449 92.2097 166.679 94.9602 166.679H114.882C117.632 166.679 119.862 164.449 119.862 161.699V94.9609C119.862 92.2104 117.632 89.9805 114.882 89.9805Z" fill="#0592FD"/>
<path d="M154.725 56.7776H134.804C132.053 56.7776 129.823 59.0075 129.823 61.758V161.699C129.823 164.449 132.053 166.679 134.804 166.679H154.725C157.476 166.679 159.706 164.449 159.706 161.699V61.758C159.706 59.0075 157.476 56.7776 154.725 56.7776Z" fill="#0592FD"/>
<path d="M169.829 34.1293L161.673 3.6922C161.331 2.41622 160.497 1.32849 159.353 0.668087C158.209 0.00734979 156.848 -0.171282 155.574 0.170376L125.137 8.326C122.479 9.03787 120.903 11.7688 121.615 14.4257C122.327 17.0826 125.059 18.6597 127.714 17.9472L147.322 12.6932C135.926 32.4977 117.091 52.0034 94.3347 67.3162C65.838 86.4929 34.1043 97.054 4.98043 97.054C2.2299 97.054 0 99.2839 0 102.034C0 104.785 2.2299 107.015 4.98043 107.015C36.0643 107.015 69.7728 95.8514 99.8961 75.5807C123.489 59.7048 143.155 39.4235 155.371 18.6561L160.207 36.7075C160.804 38.9327 162.816 40.4003 165.015 40.4003C165.442 40.4003 165.876 40.3449 166.307 40.2293C168.964 39.5171 170.541 36.7862 169.829 34.1293Z" fill="#3EAAE8"/>
<path d="M169.829 34.1293L161.673 3.6922C161.331 2.41622 160.497 1.32849 159.353 0.668087C158.209 0.00734979 156.848 -0.171282 155.574 0.170376L125.137 8.326C122.479 9.03787 120.903 11.7688 121.615 14.4257C122.327 17.0826 125.059 18.6597 127.714 17.9472L147.322 12.6932C135.926 32.4977 117.091 52.0034 94.3346 67.3162C91.2587 69.3861 88.143 71.3493 84.999 73.216V84.7019C90.0408 81.9049 95.016 78.8642 99.8958 75.5804C123.488 59.7044 143.154 39.4231 155.37 18.6557L160.207 36.7071C160.803 38.9324 162.816 40.4 165.015 40.4C165.441 40.4 165.875 40.3445 166.307 40.229C168.964 39.5171 170.541 36.7862 169.829 34.1293Z" fill="#0279BC"/>
<path d="M165.018 169.999H4.98043C2.2299 169.999 0 167.77 0 165.019C0 162.268 2.2299 160.039 4.98043 160.039H165.018C167.769 160.039 169.999 162.268 169.999 165.019C169.999 167.77 167.769 169.999 165.018 169.999Z" fill="#466288"/>
<path d="M165.018 160.039H84.9993V169.999H165.018C167.769 169.999 169.999 167.77 169.999 165.019C169.999 162.268 167.769 160.039 165.018 160.039Z" fill="#354A67"/>
</g>
<defs>
<clipPath id="clip0">
<rect width="170" height="170" fill="white"/>
</clipPath>
</defs>
</svg>
