<svg width="170" height="170" viewBox="0 0 170 170" fill="none" xmlns="http://www.w3.org/2000/svg">
<g clip-path="url(#clip0)">
<path d="M4.00729 165.993C-1.33576 160.65 -1.33576 151.987 4.00729 146.643L139.387 11.2636C144.73 5.92059 153.393 5.92059 158.736 11.2636C164.08 16.6067 164.08 25.2697 158.736 30.6131L23.3567 165.993C18.0137 171.336 9.35066 171.336 4.00729 165.993Z" fill="#82B0DB"/>
<path d="M48.5111 121.489C43.168 116.146 43.168 107.483 48.5111 102.14L4.00729 146.643C-1.33576 151.986 -1.33576 160.65 4.00729 165.993C9.35033 171.336 18.0134 171.336 23.3567 165.993L67.8605 121.489C62.5172 126.832 53.8541 126.832 48.5111 121.489Z" fill="#6A9BC8"/>
<path d="M154.951 132.561C160.622 138.232 170.357 133.993 169.99 125.981C168.593 95.5066 155.303 64.1386 130.582 39.4176C105.861 14.6965 74.4935 1.40695 44.0187 0.010099C36.0068 -0.357128 31.7681 9.37736 37.4392 15.0485L154.951 132.561Z" fill="#C1F1FF"/>
<path d="M130.582 39.4179C119.608 28.4433 107.321 19.7268 94.3862 13.2983L65.0376 42.6469L127.354 104.963L156.702 75.6143C150.273 62.679 141.557 50.3925 130.582 39.4179Z" fill="#A4E6FF"/>
<path d="M102.427 92.4998L77.5007 67.5736C74.0592 64.1321 74.0592 58.5519 77.5007 55.1104L111.774 20.8365C115.216 17.395 120.796 17.395 124.237 20.8365L149.164 45.7628C152.605 49.2043 152.605 54.7844 149.164 58.2259L114.89 92.4998C111.449 95.9413 105.869 95.9413 102.427 92.4998Z" fill="#E7FAFF"/>
<path d="M76.5783 116.299L53.7007 93.4214C49.6934 89.4141 49.6934 82.9166 53.7007 78.9093C57.708 74.902 64.2055 74.902 68.2128 78.9093L91.0904 101.787C95.0977 105.794 95.0977 112.292 91.0904 116.299C87.0831 120.306 80.586 120.306 76.5783 116.299Z" fill="#C1F1FF"/>
<path d="M89.9639 67.5732L124.237 33.2996C127.679 29.8581 133.259 29.8581 136.701 33.2996L124.237 20.8365C120.796 17.395 115.216 17.395 111.774 20.8365L77.5004 55.1101C74.0589 58.5516 74.0589 64.1317 77.5004 67.5732L89.9635 80.0363C86.522 76.5948 86.522 71.015 89.9639 67.5732Z" fill="#C1F1FF"/>
<path d="M98.8152 74.85C98.178 74.85 97.5405 74.6069 97.0544 74.1208L94.1518 71.2185C93.1789 70.246 93.1789 68.6692 94.1514 67.6967C95.1243 66.7242 96.7011 66.7242 97.673 67.6967L100.576 70.599C101.548 71.5715 101.548 73.1483 100.576 74.1208C100.09 74.6066 99.4523 74.85 98.8152 74.85Z" fill="#3B4456"/>
<path d="M129.024 44.641C128.386 44.641 127.749 44.3979 127.263 43.9115L124.36 41.0092C123.388 40.0367 123.388 38.4599 124.36 37.4877C125.333 36.5152 126.91 36.5152 127.882 37.4877L130.784 40.39C131.757 41.3625 131.757 42.9393 130.784 43.9115C130.298 44.3979 129.661 44.641 129.024 44.641Z" fill="#3B4456"/>
<path d="M110.365 63.6591C110.137 63.6591 109.909 63.6515 109.68 63.6355C108.308 63.5412 107.272 62.3529 107.366 60.9806C107.46 59.6083 108.65 58.5677 110.021 58.6667C111.458 58.7663 112.869 58.239 113.887 57.222C114.903 56.2053 115.43 54.7969 115.331 53.3572C115.237 51.9852 116.273 50.7965 117.645 50.7022C119.015 50.6123 120.206 51.6439 120.3 53.0162C120.497 55.8922 119.443 58.7088 117.409 60.7435C115.535 62.6169 112.999 63.6591 110.365 63.6591Z" fill="#3B4456"/>
</g>
<defs>
<clipPath id="clip0">
<rect width="170" height="170" fill="white"/>
</clipPath>
</defs>
</svg>
